<?xml version="1.0" encoding="UTF-8" standalone="no"?>
<!-- Generator: Gravit.io -->
<svg xmlns="http://www.w3.org/2000/svg" xmlns:xlink="http://www.w3.org/1999/xlink" style="isolation:isolate" viewBox="0 0 382 160" width="382pt" height="160pt"><defs><clipPath id="_clipPath_5xrki3HreFlOVUrtmuO6SgAritU4g9Ym"><rect width="382" height="160"/></clipPath></defs><g clip-path="url(#_clipPath_5xrki3HreFlOVUrtmuO6SgAritU4g9Ym)"><rect x="0" y="56.251" width="180" height="103.749" transform="matrix(1,0,0,1,0,0)" fill="rgb(80,118,246)"/><rect x="0" y="0" width="198.75" height="56.251" transform="matrix(1,0,0,1,0,0)" fill="rgb(80,118,246)"/><path d=" M 197.402 -0.757 L 423.902 -0.757 L 423.902 173.243 L 180 170.25 L 197.402 -0.757 Z " fill="rgb(80,118,246)"/><path d=" M 371.809 160.755 C 366.501 160.77 351.745 160.74 339.054 160.787 C 309.969 160.881 287.622 160.76 238.59 160.554 C 225.379 160.448 213.792 160.454 212.849 160.462 C 209.767 160.52 167.212 160.227 166.56 160.138 C 166.219 160.078 165.814 160.05 165.691 160.02 C 165.56 160.084 166.819 143.774 168.543 123.834 C 171.46 89.476 171.592 87.552 171.092 87.524 C 170.137 87.312 49.429 65.88 39.842 64.134 C 34.832 63.232 23.979 61.245 15.725 59.709 C 7.471 58.172 0.542 56.94 0.354 56.942 C 0.136 56.912 -0.028 56.63 0.004 56.251 C 0.065 55.904 4.588 54.414 10.118 52.885 C 15.649 51.355 25.81 48.556 32.701 46.541 C 39.612 44.653 50.617 41.531 57.151 39.646 C 63.714 37.792 74.559 34.703 81.282 32.816 C 88.005 30.929 103.29 26.572 115.225 23.221 C 127.159 19.871 142.408 15.577 149.102 13.659 C 155.768 11.709 166.698 8.714 173.393 6.796 C 180.058 4.847 188.162 2.601 191.411 1.69 L 197.269 0 L 193.742 41.551 C 191.805 64.362 190.3 83.196 190.386 83.29 C 190.501 83.415 192.294 84.125 194.418 84.989 C 196.514 85.822 204.956 89.217 213.122 92.52 C 221.326 95.759 234.168 100.944 241.67 103.937 C 249.201 106.961 261.35 111.806 268.7 114.737 C 276.05 117.669 294.299 125.014 309.245 130.937 C 324.184 136.956 342.44 144.206 349.791 147.137 C 357.141 150.069 367.252 154.143 372.231 156.149 C 377.247 158.091 381.358 159.979 381.399 160.231 C 381.469 160.514 377.145 160.772 371.809 160.755 Z " fill="rgb(0,0,0)"/><path d=" M 277.222 96.728 L 232.122 96.728 L 232.122 96.728 Q 226.422 96.728 222.372 92.678 L 222.372 92.678 L 222.372 92.678 Q 218.322 88.628 218.322 82.928 L 218.322 82.928 L 218.322 61.128 L 264.122 61.128 L 264.122 55.328 L 264.122 55.328 Q 264.122 52.528 263.772 52.178 L 263.772 52.178 L 263.772 52.178 Q 263.422 51.828 260.622 51.828 L 260.622 51.828 L 218.322 51.828 L 218.322 38.728 L 263.422 38.728 L 263.422 38.728 Q 269.122 38.728 273.172 42.778 L 273.172 42.778 L 273.172 42.778 Q 277.222 46.828 277.222 52.528 L 277.222 52.528 L 277.222 96.728 L 277.222 96.728 Z  M 234.922 83.628 L 234.922 83.628 L 264.122 83.628 L 264.122 72.928 L 231.422 72.928 L 231.422 80.128 L 231.422 80.128 Q 231.422 82.928 231.772 83.278 L 231.772 83.278 L 231.772 83.278 Q 232.122 83.628 234.922 83.628 Z  M 334.122 119.628 L 298.622 119.628 L 298.622 106.428 L 331.322 106.428 L 331.322 106.428 Q 334.022 106.428 334.372 106.078 L 334.372 106.078 L 334.372 106.078 Q 334.722 105.728 334.722 102.928 L 334.722 102.928 L 334.722 96.728 L 302.722 96.728 L 302.722 96.728 Q 297.022 96.728 292.972 92.678 L 292.972 92.678 L 292.972 92.678 Q 288.922 88.628 288.922 82.928 L 288.922 82.928 L 288.922 52.528 L 288.922 52.528 Q 288.922 46.828 292.972 42.778 L 292.972 42.778 L 292.972 42.778 Q 297.022 38.728 302.722 38.728 L 302.722 38.728 L 334.122 38.728 L 334.122 38.728 Q 339.822 38.728 343.822 42.778 L 343.822 42.778 L 343.822 42.778 Q 347.822 46.828 347.822 52.528 L 347.822 52.528 L 347.822 105.828 L 347.822 105.828 Q 347.822 111.528 343.822 115.578 L 343.822 115.578 L 343.822 115.578 Q 339.822 119.628 334.122 119.628 L 334.122 119.628 L 334.122 119.628 Z  M 305.522 83.628 L 305.522 83.628 L 331.322 83.628 L 331.322 83.628 Q 334.022 83.628 334.372 83.278 L 334.372 83.278 L 334.372 83.278 Q 334.722 82.928 334.722 80.128 L 334.722 80.128 L 334.722 55.328 L 334.722 55.328 Q 334.722 52.528 334.372 52.178 L 334.372 52.178 L 334.372 52.178 Q 334.022 51.828 331.322 51.828 L 331.322 51.828 L 305.522 51.828 L 305.522 51.828 Q 302.722 51.828 302.372 52.178 L 302.372 52.178 L 302.372 52.178 Q 302.022 52.528 302.022 55.328 L 302.022 55.328 L 302.022 80.128 L 302.022 80.128 Q 302.022 82.928 302.372 83.278 L 302.372 83.278 L 302.372 83.278 Q 302.722 83.628 305.522 83.628 Z " fill="rgb(0,0,0)"/></g></svg>
